# xmcd CD database file
#
# Track frame offsets:
#	150
#	32777
#	71830
#	103816
#	146518
#	188200
#	231627
#
# Disc length: 3978 seconds
#
# Revision: 0
# Processed by: cddbd v1.5.2PL0 Copyright (c) Steve Scherf et al.
# Submitted via: CDex 2.03
#
DISCID=6a0f8807
DTITLE=Heinz von Hermann - Lucky Thompson and Me [CD1)
DYEAR=2010
DGENRE=Jazz
TTITLE0=Fillet of Soul
TTITLE1=Tea Time
TTITLE2=The Moment of Truth
TTITLE3=Evil Eva
TTITLE4=Soul Lullaby
TTITLE5=Reminiscent
TTITLE6=Mid-Nite-Oil
EXTD=YEAR: 2010
EXTT0=
EXTT1=
EXTT2=
EXTT3=
EXTT4=
EXTT5=
EXTT6=
PLAYORDER=
